{"title":"Jumping the Broom 2011 BRRiP XViD AC3-IMAGiNE - instantfreemovie","uid":6555910,"size":1789432520,"categoryP":"video","categoryS":"movies","magnet":"?xt=urn:btih:48f72768d348974a2693a221ad066111a3b841f7&amp;dn=Jumping+the+Broom+2011+BRRiP+XViD+AC3-IMAGiNE+-+instantfreemovie&amp;tr=udp%3A%2F%2Ftracker.openbittorrent.com%3A80&amp;tr=udp%3A%2F%2Fopen.demonii.com%3A1337&amp;tr=udp%3A%2F%2Ftracker.coppersurfer.tk%3A6969&amp;tr=udp%3A%2F%2Fexodus.desync.com%3A6969","seeders":0,"leechers":1,"uploader":"Zelulzseeder","files":4,"time":1311291037,"description":"    *********** ****    ****      ***      ******** *********** ****    *** **********\n           *+*     +*+*+* *+*+*+   *+* *+*   *+*    *+*    *+*     *+*+*   *+* *+*        \n           +*+     +*+ +*+*+ +*+  +*+   +*+  +*+           +*+     *+*+*+  +*+ +*+        \n           +$+     +$+  +*+  +$+ +$++*++$++* *$*           +$+     +$+ +*+ +$+ +$++*++$  \n           +$+     +$+       +$+ +$+     +$+ +$+   +$+$    +$+     +$+  +$+$+$ +$+        \n           $+$     $+$       $+$ $+$     $+$ $+$    $+$    $+$     $+$   $+$+$ $+$        \n       $$$$$$$$$$$ $$$       $$$ $$$     $$$  $$$$$$$$ $$$$$$$$$$$ $$$    $$$$ $$$$$$$$$$     \n                                                \n\n\n\n                           Another Fine Release Brought to you from - IMAGiNE                   \n                                                 \n\n********************************************************************************************************************                                \n                            Jumping the Broom 2011 BRRiP XViD AC3 - IMAGiNE\n********************************************************************************************************************\n\nRipper ...........: IMAGiNE                                        IMDB Rating.......:3.9/10                             \nVideo Codec.......: XVID                                         Release Date......:19/07/11\nAudio Codec.......:AC3                                           Theatre Date......:06/05/11\nAudio Bitrate.....:256                                              Runtime.......:1h 52mn\nSubtitles.........:NIL                                          Language..........:ENGLISH\nResolution...... 720 x 400                                      IMDb URL..........:http://www.imdb.com/title/tt1640484/\n\n\n[color=yellow]DETAILS:[/color]\n\nVideo\nID                               : 0\nFormat                           : MPEG-4 Visual\nFormat profile                   : Advanced Simple@L5\nFormat settings, BVOP            : 2\nFormat settings, QPel            : No\nFormat settings, GMC             : No warppoints\nFormat settings, Matrix          : Default (MPEG)\nMuxing mode                      : Packed bitstream\nCodec ID                         : XVID\nCodec ID/Hint                    : XviD\nDuration                         : 1h 52mn\nBit rate                         : 1 845 Kbps\nWidth                            : 720 pixels\nHeight                           : 400 pixels\nDisplay aspect ratio             : 16:9\nFrame rate                       : 23.976 fps\nColor space                      : YUV\nChroma subsampling               : 4:2:0\nBit depth                        : 8 bits\nScan type                        : Progressive\nCompression mode                 : Lossy\nBits/(Pixel*Frame)               : 0.267\nStream size                      : 1.45 GiB (87%)\nWriting library                  : XviD 64\n\nAudio\nID                               : 1\nFormat                           : AC-3\nFormat/Info                      : Audio Coding 3\nMode extension                   : CM (complete main)\nCodec ID                         : 2000\nDuration                         : 1h 52mn\nBit rate mode                    : Constant\nBit rate                         : 256 Kbps\nChannel(s)                       : 6 channels\nChannel positions                : Front: L C R, Side: L R, LFE\nSampling rate                    : 48.0 KHz\nBit depth                        : 16 bits\nCompression mode                 : Lossy\nStream size                      : 206 MiB (12%)\nAlignment                        : Aligned on interleaves\nInterleave, duration             : 42 ms (1.00 video frame)\n\n\n\n\n[color=yellow]SOURCES:[/color]\n\nVIDEO:...........Jumping.the.Broom.2011.BluRay.720p.DTS.x264-CHD\nAUDIO:...........Jumping.the.Broom.2011.BluRay.720p.DTS.x264-CHD Thanx :D\n\n[color=yellow]NOTES:[/color]\n\nIMAGiNE bringing you another release..........\nJumping The Broom BRRiP...........\nHeres a nice brrip, not much needed so not much to say\nresize this convert that remux to here and there ya go :P\nEnjoy!\n\n\n[color=yellow]SCREENS:[/color]\n\n","torrent":{"xt":"urn:btih:48f72768d348974a2693a221ad066111a3b841f7","amp;dn":"Jumping+the+Broom+2011+BRRiP+XViD+AC3-IMAGiNE+-+instantfreemovie","amp;tr":["udp%3A%2F%2Ftracker.openbittorrent.com%3A80","udp%3A%2F%2Fopen.demonii.com%3A1337","udp%3A%2F%2Ftracker.coppersurfer.tk%3A6969","udp%3A%2F%2Fexodus.desync.com%3A6969"],"infoHash":"48f72768d348974a2693a221ad066111a3b841f7","infoHashBuffer":{"type":"Buffer","data":[72,247,39,104,211,72,151,74,38,147,162,33,173,6,97,17,163,184,65,247]},"announce":[],"urlList":[]}}